<svg width="150" height="28" viewBox="0 0 150 28" fill="none" xmlns="http://www.w3.org/2000/svg">
<path d="M50.3479 5.92689C50.1088 4.06754 49.3119 2.79255 48.369 1.916C47.7979 1.31835 47.2002 0.959764 46.6956 0.773829C45.3807 0.123056 44.2253 0.0168076 44.2253 0.0168076C42.273 -0.19569 41.848 1.67694 41.848 1.67694C41.3831 2.92537 42.087 6.77688 42.087 6.77688H42.1003C42.1401 7.33469 42.2066 7.98546 42.3128 8.71592C42.3128 8.71592 44.0261 18.9556 39.1519 18.9955C39.1519 18.9955 35.566 20.1509 33.866 10.7214C33.2153 9.16748 32.7371 10.4425 32.7371 10.4425C32.6176 11.1596 31.3692 14.294 31.3692 14.294C28.8723 21.054 26.1099 19.5533 26.1099 19.5533C24.7154 18.9822 24.8747 14.7721 24.8747 14.7721C24.981 11.1729 24.6357 9.02138 24.6357 9.02138C23.4537 0.919921 18.1943 0.627737 18.1943 0.627737C12.2311 0.0699318 8.68509 7.98546 8.114 9.35341C8.10072 9.26044 8.10072 9.20732 8.10072 9.20732C7.59604 2.23475 3.98358 2.91208 3.98358 2.91208C-0.571829 2.87224 0.02582 7.71984 0.02582 7.71984L0.384409 17.508C0.729717 24.5868 4.4617 26.5524 4.4617 26.5524C8.93743 28.6641 8.83118 23.4446 8.83118 23.4446C8.85774 23.1259 8.85774 22.6743 8.85774 22.1165L8.87102 22.1829C8.87102 22.1298 8.85774 22.0767 8.85774 22.0236C8.84446 21.5455 8.83118 21.0142 8.80462 20.4166C8.8179 19.0884 8.93743 17.9728 9.04368 17.2955C10.4116 9.03467 13.1608 7.30812 13.1608 7.30812C17.9154 4.14723 17.2514 13.9088 17.2514 13.9088C17.2514 16.3658 17.2912 18.4111 17.2912 18.4111C18.0615 28.1594 24.131 26.9641 24.131 26.9641C28.4341 26.9641 30.8645 22.9267 32.2192 18.8892C32.6442 21.1869 34.3707 27.1102 40.998 27.004C40.998 27.004 48.8737 27.7344 50.5604 12.0229C50.826 9.4995 50.6932 7.50734 50.3479 5.92689Z" fill="white"/>
<path d="M58.499 22.1771C57.9531 22.1771 57.562 22.1033 57.3259 21.9557C57.1046 21.7934 56.9644 21.5868 56.9054 21.336C56.8611 21.0704 56.839 20.7974 56.839 20.517V12.726C56.839 12.4456 56.8685 12.1874 56.9275 11.9513C56.9866 11.7004 57.1267 11.5012 57.3481 11.3537C57.5842 11.2061 57.9752 11.1323 58.5212 11.1323C58.9934 11.1323 59.3401 11.1987 59.5615 11.3315C59.7828 11.4496 59.923 11.5971 59.982 11.7742C60.0558 11.9513 60.0927 12.121 60.0927 12.2833C60.0927 12.4308 60.1074 12.5341 60.1369 12.5932L60.0041 13.0137C60.0336 12.7924 60.1443 12.571 60.3361 12.3497C60.5427 12.1136 60.7936 11.907 61.0887 11.7299C61.3986 11.5381 61.7232 11.3906 62.0626 11.2873C62.4167 11.184 62.7635 11.1323 63.1029 11.1323C63.8111 11.1323 64.4383 11.2651 64.9842 11.5307C65.5449 11.7816 66.0171 12.1505 66.4008 12.6374C66.7844 13.1244 67.0722 13.6998 67.264 14.3639C67.4706 15.0131 67.5739 15.7288 67.5739 16.5108V20.5392C67.5739 20.8195 67.5444 21.0925 67.4853 21.3581C67.4411 21.609 67.3009 21.8082 67.0648 21.9557C66.8435 22.1033 66.4598 22.1771 65.9138 22.1771C65.3531 22.1771 64.9547 22.1033 64.7186 21.9557C64.4973 21.7934 64.3571 21.5868 64.2981 21.336C64.2391 21.0704 64.2095 20.7974 64.2095 20.517V16.5108C64.2095 16.0682 64.1358 15.6919 63.9882 15.382C63.8406 15.0721 63.6193 14.836 63.3242 14.6737C63.0291 14.4967 62.6676 14.4081 62.2396 14.4081C61.8117 14.4081 61.4428 14.4967 61.133 14.6737C60.8231 14.8508 60.5796 15.0943 60.4025 15.4041C60.2402 15.714 60.1591 16.0829 60.1591 16.5108V20.5392C60.1591 20.8195 60.1296 21.0925 60.0705 21.3581C60.0263 21.609 59.8861 21.8082 59.65 21.9557C59.4287 22.1033 59.045 22.1771 58.499 22.1771ZM74.8 22.3984C73.7671 22.3984 72.8744 22.2287 72.1218 21.8893C71.3841 21.5499 70.7791 21.1073 70.3069 20.5613C69.8347 20.0006 69.4806 19.3808 69.2445 18.7021C69.0231 18.0233 68.9125 17.3445 68.9125 16.6658C68.9125 15.5591 69.1633 14.5778 69.665 13.722C70.1667 12.8661 70.8602 12.1947 71.7456 11.7078C72.6309 11.2061 73.6491 10.9553 74.8 10.9553C75.6559 10.9553 76.3937 11.0954 77.0134 11.3758C77.6479 11.6414 78.1644 11.9955 78.5628 12.4382C78.9759 12.8661 79.2784 13.3309 79.4703 13.8326C79.6768 14.3343 79.7801 14.8139 79.7801 15.2713C79.7801 16.0829 79.5809 16.6879 79.1825 17.0863C78.7989 17.47 78.3045 17.6618 77.6996 17.6618H72.4317C72.4612 18.0454 72.594 18.3701 72.8301 18.6357C73.081 18.9013 73.3908 19.1079 73.7597 19.2554C74.1286 19.403 74.5197 19.4768 74.9328 19.4768C75.287 19.4768 75.5968 19.462 75.8625 19.4325C76.1281 19.3882 76.3568 19.3366 76.5486 19.2775C76.7404 19.2038 76.9175 19.1374 77.0798 19.0783C77.2421 19.0046 77.3823 18.9455 77.5003 18.9013C77.6332 18.857 77.7586 18.8275 77.8766 18.8127C78.098 18.798 78.2972 18.8644 78.4742 19.0119C78.6661 19.1447 78.8358 19.3513 78.9833 19.6317C79.0866 19.794 79.153 19.9489 79.1825 20.0965C79.2268 20.2441 79.2489 20.3916 79.2489 20.5392C79.2489 20.8933 79.0645 21.2106 78.6956 21.4909C78.3414 21.7713 77.8324 21.9926 77.1683 22.1549C76.5191 22.3173 75.7296 22.3984 74.8 22.3984ZM72.4317 15.8468H75.9289C76.1649 15.8468 76.3346 15.8099 76.4379 15.7361C76.556 15.6476 76.615 15.4853 76.615 15.2492C76.615 14.9836 76.5338 14.7549 76.3715 14.5631C76.2092 14.3565 75.9879 14.2015 75.7075 14.0982C75.4419 13.9802 75.132 13.9212 74.7779 13.9212C74.3205 13.9212 73.9147 14.0097 73.5605 14.1868C73.2064 14.3639 72.926 14.5999 72.7195 14.8951C72.5276 15.1902 72.4317 15.5074 72.4317 15.8468ZM90.2297 22.1771C89.6837 22.1771 89.2779 22.0812 89.0123 21.8893C88.7615 21.6975 88.6361 21.4614 88.6361 21.1811L88.8574 20.8048C88.7689 20.9523 88.5992 21.1368 88.3483 21.3581C88.0975 21.5647 87.7728 21.7565 87.3744 21.9336C86.976 22.0959 86.4817 22.1771 85.8915 22.1771C85.2127 22.1771 84.5634 22.0295 83.9437 21.7344C83.3387 21.4393 82.8001 21.0335 82.3279 20.517C81.8557 19.9858 81.4795 19.3882 81.1991 18.7242C80.9335 18.0602 80.8007 17.3593 80.8007 16.6215C80.8007 15.8985 80.9335 15.2123 81.1991 14.5631C81.4795 13.899 81.8557 13.3162 82.3279 12.8145C82.8149 12.298 83.3608 11.8922 83.9658 11.5971C84.5708 11.302 85.2127 11.1545 85.8915 11.1545C86.4374 11.1545 86.9022 11.2356 87.2859 11.3979C87.6695 11.5455 87.9868 11.7226 88.2376 11.9291C88.5032 12.1357 88.7025 12.3349 88.8353 12.5267L88.6582 12.2169C88.6434 11.8627 88.7615 11.5971 89.0123 11.4201C89.2779 11.2282 89.6911 11.1323 90.2518 11.1323C90.783 11.1323 91.1593 11.2135 91.3806 11.3758C91.6167 11.5381 91.7569 11.7521 91.8012 12.0177C91.8602 12.2833 91.8897 12.5636 91.8897 12.8588V20.4949C91.8897 20.7753 91.8602 21.0482 91.8012 21.3139C91.7569 21.5795 91.6167 21.7934 91.3806 21.9557C91.1593 22.1033 90.7756 22.1771 90.2297 22.1771ZM86.3784 18.8791C86.7621 18.8791 87.1088 18.7832 87.4187 18.5914C87.7433 18.3848 87.9942 18.1118 88.1712 17.7725C88.3631 17.4331 88.459 17.0568 88.459 16.6436C88.459 16.2157 88.3631 15.8394 88.1712 15.5148C87.9794 15.1754 87.7212 14.9098 87.3966 14.718C87.0719 14.5114 86.7178 14.4081 86.3341 14.4081C85.9062 14.4081 85.5226 14.5114 85.1832 14.718C84.8586 14.9246 84.593 15.1976 84.3864 15.5369C84.1945 15.8763 84.0986 16.26 84.0986 16.6879C84.0986 17.0863 84.1945 17.4552 84.3864 17.7946C84.593 18.1192 84.8659 18.3848 85.2053 18.5914C85.5595 18.7832 85.9505 18.8791 86.3784 18.8791ZM95.331 22.1992C94.785 22.1992 94.394 22.1254 94.1579 21.9779C93.9366 21.8156 93.7964 21.6016 93.7374 21.336C93.6931 21.0704 93.671 20.7974 93.671 20.517V12.7924C93.671 12.4972 93.7005 12.2243 93.7595 11.9734C93.8185 11.7226 93.9587 11.5234 94.18 11.3758C94.4161 11.2135 94.8072 11.1323 95.3531 11.1323C95.8696 11.1323 96.2385 11.2061 96.4598 11.3537C96.6959 11.4865 96.8435 11.6488 96.9025 11.8406C96.9615 12.0177 96.991 12.1726 96.991 12.3054L96.7254 12.4382C96.7549 12.3792 96.8287 12.2759 96.9468 12.1283C97.0796 11.966 97.2566 11.8037 97.478 11.6414C97.6993 11.4643 97.9649 11.3168 98.2748 11.1987C98.5994 11.0807 98.9683 11.0217 99.3815 11.0217C99.5438 11.0217 99.7209 11.0364 99.9127 11.0659C100.119 11.0807 100.326 11.1249 100.532 11.1987C100.754 11.2577 100.953 11.3463 101.13 11.4643C101.307 11.5676 101.447 11.7004 101.551 11.8627C101.669 12.0251 101.728 12.2243 101.728 12.4603C101.728 13.0653 101.587 13.5818 101.307 14.0097C101.027 14.4229 100.673 14.6295 100.245 14.6295C99.9938 14.6295 99.8168 14.6073 99.7135 14.5631C99.6102 14.5188 99.5217 14.4745 99.4479 14.4303C99.3889 14.386 99.3151 14.3491 99.2265 14.3196C99.138 14.2753 98.9757 14.2532 98.7396 14.2532C98.5183 14.2532 98.3043 14.2827 98.0977 14.3417C97.9059 14.4007 97.7214 14.4967 97.5444 14.6295C97.3821 14.7475 97.2493 14.9024 97.146 15.0943C97.0574 15.2713 97.0132 15.4705 97.0132 15.6919V20.5613C97.0132 20.8417 96.9837 21.1146 96.9246 21.3803C96.8804 21.6311 96.7402 21.8303 96.5041 21.9779C96.268 22.1254 95.877 22.1992 95.331 22.1992ZM107.302 22.2213C106.904 22.2213 106.594 22.1476 106.372 22C106.166 21.8524 106.011 21.6754 105.908 21.4688C105.819 21.2622 105.745 21.0851 105.686 20.9376L102.565 13.2129C102.462 12.8588 102.411 12.5636 102.411 12.3275C102.425 12.0767 102.514 11.8701 102.676 11.7078C102.853 11.5307 103.126 11.3758 103.495 11.243C104.056 11.0069 104.513 10.9405 104.867 11.0438C105.221 11.1471 105.487 11.4496 105.664 11.9513L107.302 16.4002L108.763 12.3054C108.822 12.1579 108.903 11.9955 109.006 11.8185C109.11 11.6266 109.265 11.457 109.471 11.3094C109.693 11.1618 109.988 11.0881 110.357 11.0881C110.755 11.0881 111.065 11.1618 111.286 11.3094C111.507 11.457 111.67 11.6266 111.773 11.8185C111.891 12.0103 111.972 12.1726 112.017 12.3054L113.477 16.4002L115.027 12.2169C115.233 11.6709 115.506 11.302 115.846 11.1102C116.185 10.9184 116.635 10.9405 117.196 11.1766C117.712 11.3979 118.066 11.6709 118.258 11.9955C118.45 12.3202 118.428 12.7333 118.192 13.235L115.071 20.9376C115.012 21.0999 114.931 21.2843 114.828 21.4909C114.724 21.6975 114.569 21.8672 114.363 22C114.156 22.1476 113.868 22.2213 113.5 22.2213C113.116 22.2213 112.821 22.1549 112.614 22.0221C112.408 21.9041 112.245 21.7418 112.127 21.5352C112.024 21.3286 111.935 21.122 111.862 20.9154L110.379 16.8428L108.918 20.9154C108.815 21.1811 108.719 21.4171 108.63 21.6237C108.542 21.8156 108.394 21.9631 108.187 22.0664C107.996 22.1697 107.7 22.2213 107.302 22.2213ZM128.034 22.1771C127.488 22.1771 127.083 22.0812 126.817 21.8893C126.566 21.6975 126.441 21.4614 126.441 21.1811L126.662 20.8048C126.573 20.9523 126.404 21.1368 126.153 21.3581C125.902 21.5647 125.577 21.7565 125.179 21.9336C124.781 22.0959 124.286 22.1771 123.696 22.1771C123.017 22.1771 122.368 22.0295 121.748 21.7344C121.143 21.4393 120.605 21.0335 120.133 20.517C119.66 19.9858 119.284 19.3882 119.004 18.7242C118.738 18.0602 118.605 17.3593 118.605 16.6215C118.605 15.8985 118.738 15.2123 119.004 14.5631C119.284 13.899 119.66 13.3162 120.133 12.8145C120.62 12.298 121.165 11.8922 121.77 11.5971C122.375 11.302 123.017 11.1545 123.696 11.1545C124.242 11.1545 124.707 11.2356 125.091 11.3979C125.474 11.5455 125.791 11.7226 126.042 11.9291C126.308 12.1357 126.507 12.3349 126.64 12.5267L126.463 12.2169C126.448 11.8627 126.566 11.5971 126.817 11.4201C127.083 11.2282 127.496 11.1323 128.056 11.1323C128.588 11.1323 128.964 11.2135 129.185 11.3758C129.421 11.5381 129.562 11.7521 129.606 12.0177C129.665 12.2833 129.694 12.5636 129.694 12.8588V20.4949C129.694 20.7753 129.665 21.0482 129.606 21.3139C129.562 21.5795 129.421 21.7934 129.185 21.9557C128.964 22.1033 128.58 22.1771 128.034 22.1771ZM124.183 18.8791C124.567 18.8791 124.913 18.7832 125.223 18.5914C125.548 18.3848 125.799 18.1118 125.976 17.7725C126.168 17.4331 126.264 17.0568 126.264 16.6436C126.264 16.2157 126.168 15.8394 125.976 15.5148C125.784 15.1754 125.526 14.9098 125.201 14.718C124.877 14.5114 124.522 14.4081 124.139 14.4081C123.711 14.4081 123.327 14.5114 122.988 14.718C122.663 14.9246 122.398 15.1976 122.191 15.5369C121.999 15.8763 121.903 16.26 121.903 16.6879C121.903 17.0863 121.999 17.4552 122.191 17.7946C122.398 18.1192 122.671 18.3848 123.01 18.5914C123.364 18.7832 123.755 18.8791 124.183 18.8791ZM135.725 22.1992C135.12 22.1992 134.582 22.1623 134.11 22.0885C133.652 22.0295 133.254 21.9115 132.914 21.7344C132.59 21.5573 132.324 21.3139 132.117 21.004C131.911 20.6941 131.756 20.2957 131.653 19.8088C131.564 19.3071 131.52 18.6947 131.52 17.9717V7.74586C131.52 7.45074 131.542 7.17776 131.586 6.92691C131.645 6.67606 131.793 6.46948 132.029 6.30716C132.265 6.14485 132.649 6.06369 133.18 6.06369C133.711 6.06369 134.087 6.14485 134.309 6.30716C134.545 6.46948 134.692 6.67606 134.751 6.92691C134.81 7.17776 134.84 7.45074 134.84 7.74586V17.8167C134.84 18.0528 134.847 18.252 134.862 18.4143C134.892 18.5619 134.936 18.6799 134.995 18.7685C135.069 18.857 135.165 18.916 135.283 18.9455C135.401 18.9751 135.556 18.9898 135.747 18.9898C135.924 18.9898 136.102 19.0119 136.279 19.0562C136.47 19.1005 136.633 19.2333 136.766 19.4546C136.898 19.676 136.965 20.0449 136.965 20.5613C136.965 21.0925 136.898 21.4762 136.766 21.7123C136.633 21.9484 136.47 22.0885 136.279 22.1328C136.102 22.1771 135.917 22.1992 135.725 22.1992ZM147.164 22.1771C146.618 22.1771 146.212 22.0812 145.946 21.8893C145.695 21.6975 145.57 21.4614 145.57 21.1811L145.791 20.8048C145.703 20.9523 145.533 21.1368 145.282 21.3581C145.031 21.5647 144.707 21.7565 144.308 21.9336C143.91 22.0959 143.416 22.1771 142.825 22.1771C142.147 22.1771 141.497 22.0295 140.878 21.7344C140.273 21.4393 139.734 21.0335 139.262 20.517C138.79 19.9858 138.413 19.3882 138.133 18.7242C137.867 18.0602 137.735 17.3593 137.735 16.6215C137.735 15.8985 137.867 15.2123 138.133 14.5631C138.413 13.899 138.79 13.3162 139.262 12.8145C139.749 12.298 140.295 11.8922 140.9 11.5971C141.505 11.302 142.147 11.1545 142.825 11.1545C143.371 11.1545 143.836 11.2356 144.22 11.3979C144.603 11.5455 144.921 11.7226 145.172 11.9291C145.437 12.1357 145.636 12.3349 145.769 12.5267L145.592 12.2169C145.577 11.8627 145.695 11.5971 145.946 11.4201C146.212 11.2282 146.625 11.1323 147.186 11.1323C147.717 11.1323 148.093 11.2135 148.315 11.3758C148.551 11.5381 148.691 11.7521 148.735 12.0177C148.794 12.2833 148.824 12.5636 148.824 12.8588V20.4949C148.824 20.7753 148.794 21.0482 148.735 21.3139C148.691 21.5795 148.551 21.7934 148.315 21.9557C148.093 22.1033 147.71 22.1771 147.164 22.1771ZM143.312 18.8791C143.696 18.8791 144.043 18.7832 144.353 18.5914C144.677 18.3848 144.928 18.1118 145.105 17.7725C145.297 17.4331 145.393 17.0568 145.393 16.6436C145.393 16.2157 145.297 15.8394 145.105 15.5148C144.913 15.1754 144.655 14.9098 144.33 14.718C144.006 14.5114 143.652 14.4081 143.268 14.4081C142.84 14.4081 142.456 14.5114 142.117 14.718C141.792 14.9246 141.527 15.1976 141.32 15.5369C141.128 15.8763 141.033 16.26 141.033 16.6879C141.033 17.0863 141.128 17.4552 141.32 17.7946C141.527 18.1192 141.8 18.3848 142.139 18.5914C142.493 18.7832 142.884 18.8791 143.312 18.8791Z" fill="white"/>
</svg>
