<svg width="272" height="49" viewBox="0 0 272 49" fill="none" xmlns="http://www.w3.org/2000/svg">
<path d="M91.9092 10.711C91.4772 7.35083 90.0371 5.04669 88.333 3.46259C87.301 2.38252 86.2209 1.73448 85.3088 1.39846C82.9327 0.222386 80.8446 0.0303746 80.8446 0.0303746C77.3163 -0.353649 76.5483 3.03056 76.5483 3.03056C75.7082 5.2867 76.9803 12.2471 76.9803 12.2471H77.0043C77.0763 13.2552 77.1963 14.4313 77.3883 15.7514C77.3883 15.7514 80.4845 34.2565 71.676 34.3285C71.676 34.3285 65.1956 36.4167 62.1234 19.3756C60.9473 16.5674 60.0833 18.8716 60.0833 18.8716C59.8672 20.1676 57.6111 25.832 57.6111 25.832C53.0988 38.0488 48.1065 35.3366 48.1065 35.3366C45.5864 34.3045 45.8744 26.696 45.8744 26.696C46.0664 20.1916 45.4423 16.3034 45.4423 16.3034C43.3062 1.66248 33.8016 1.13444 33.8016 1.13444C23.0249 0.12638 16.6165 14.4313 15.5845 16.9034C15.5605 16.7354 15.5605 16.6394 15.5605 16.6394C14.6484 4.03863 8.12001 5.2627 8.12001 5.2627C-0.112508 5.1907 0.96756 13.9512 0.96756 13.9512L1.6156 31.6404C2.23964 44.4332 8.98406 47.9854 8.98406 47.9854C17.0726 51.8016 16.8806 42.369 16.8806 42.369C16.9286 41.793 16.9286 40.9769 16.9286 39.9689L16.9526 40.0889C16.9526 39.9929 16.9286 39.8969 16.9286 39.8009C16.9046 38.9368 16.8806 37.9767 16.8325 36.8967C16.8566 34.4965 17.0726 32.4804 17.2646 31.2563C19.7367 16.3274 24.705 13.2072 24.705 13.2072C33.2976 7.49484 32.0975 25.1359 32.0975 25.1359C32.0975 29.5762 32.1695 33.2725 32.1695 33.2725C33.5616 50.8896 44.5303 48.7294 44.5303 48.7294C52.3068 48.7294 56.699 41.433 59.1472 34.1365C59.9152 38.2888 63.0354 48.9934 75.0122 48.8014C75.0122 48.8014 89.2451 50.1215 92.2933 21.7277C92.7733 17.1674 92.5333 13.5672 91.9092 10.711Z" fill="white"/>
<path d="M106.64 39.32C105.653 39.32 104.947 39.1867 104.52 38.92C104.12 38.6267 103.867 38.2533 103.76 37.8C103.68 37.32 103.64 36.8267 103.64 36.32V22.24C103.64 21.7333 103.693 21.2667 103.8 20.84C103.907 20.3867 104.16 20.0267 104.56 19.76C104.987 19.4933 105.693 19.36 106.68 19.36C107.533 19.36 108.16 19.48 108.56 19.72C108.96 19.9333 109.213 20.2 109.32 20.52C109.453 20.84 109.52 21.1467 109.52 21.44C109.52 21.7067 109.547 21.8933 109.6 22L109.36 22.76C109.413 22.36 109.613 21.96 109.96 21.56C110.333 21.1333 110.787 20.76 111.32 20.44C111.88 20.0933 112.467 19.8267 113.08 19.64C113.72 19.4533 114.347 19.36 114.96 19.36C116.24 19.36 117.373 19.6 118.36 20.08C119.373 20.5333 120.227 21.2 120.92 22.08C121.613 22.96 122.133 24 122.48 25.2C122.853 26.3733 123.04 27.6667 123.04 29.08V36.36C123.04 36.8667 122.987 37.36 122.88 37.84C122.8 38.2933 122.547 38.6533 122.12 38.92C121.72 39.1867 121.027 39.32 120.04 39.32C119.027 39.32 118.307 39.1867 117.88 38.92C117.48 38.6267 117.227 38.2533 117.12 37.8C117.013 37.32 116.96 36.8267 116.96 36.32V29.08C116.96 28.28 116.827 27.6 116.56 27.04C116.293 26.48 115.893 26.0533 115.36 25.76C114.827 25.44 114.173 25.28 113.4 25.28C112.627 25.28 111.96 25.44 111.4 25.76C110.84 26.08 110.4 26.52 110.08 27.08C109.787 27.64 109.64 28.3067 109.64 29.08V36.36C109.64 36.8667 109.587 37.36 109.48 37.84C109.4 38.2933 109.147 38.6533 108.72 38.92C108.32 39.1867 107.627 39.32 106.64 39.32ZM136.099 39.72C134.232 39.72 132.619 39.4133 131.259 38.8C129.926 38.1867 128.832 37.3867 127.979 36.4C127.126 35.3867 126.486 34.2667 126.059 33.04C125.659 31.8133 125.459 30.5867 125.459 29.36C125.459 27.36 125.912 25.5867 126.819 24.04C127.726 22.4933 128.979 21.28 130.579 20.4C132.179 19.4933 134.019 19.04 136.099 19.04C137.646 19.04 138.979 19.2933 140.099 19.8C141.246 20.28 142.179 20.92 142.899 21.72C143.646 22.4933 144.192 23.3333 144.539 24.24C144.912 25.1467 145.099 26.0133 145.099 26.84C145.099 28.3067 144.739 29.4 144.019 30.12C143.326 30.8133 142.432 31.16 141.339 31.16H131.819C131.872 31.8533 132.112 32.44 132.539 32.92C132.992 33.4 133.552 33.7733 134.219 34.04C134.886 34.3067 135.592 34.44 136.339 34.44C136.979 34.44 137.539 34.4133 138.019 34.36C138.499 34.28 138.912 34.1867 139.259 34.08C139.606 33.9467 139.926 33.8267 140.219 33.72C140.512 33.5867 140.766 33.48 140.979 33.4C141.219 33.32 141.446 33.2667 141.659 33.24C142.059 33.2133 142.419 33.3333 142.739 33.6C143.086 33.84 143.392 34.2133 143.659 34.72C143.846 35.0133 143.966 35.2933 144.019 35.56C144.099 35.8267 144.139 36.0933 144.139 36.36C144.139 37 143.806 37.5733 143.139 38.08C142.499 38.5867 141.579 38.9867 140.379 39.28C139.206 39.5733 137.779 39.72 136.099 39.72ZM131.819 27.88H138.139C138.566 27.88 138.872 27.8133 139.059 27.68C139.272 27.52 139.379 27.2267 139.379 26.8C139.379 26.32 139.232 25.9067 138.939 25.56C138.646 25.1867 138.246 24.9067 137.739 24.72C137.259 24.5067 136.699 24.4 136.059 24.4C135.232 24.4 134.499 24.56 133.859 24.88C133.219 25.2 132.712 25.6267 132.339 26.16C131.992 26.6933 131.819 27.2667 131.819 27.88ZM163.983 39.32C162.997 39.32 162.263 39.1467 161.783 38.8C161.33 38.4533 161.103 38.0267 161.103 37.52L161.503 36.84C161.343 37.1067 161.037 37.44 160.583 37.84C160.13 38.2133 159.543 38.56 158.823 38.88C158.103 39.1733 157.21 39.32 156.143 39.32C154.917 39.32 153.743 39.0533 152.623 38.52C151.53 37.9867 150.557 37.2533 149.703 36.32C148.85 35.36 148.17 34.28 147.663 33.08C147.183 31.88 146.943 30.6133 146.943 29.28C146.943 27.9733 147.183 26.7333 147.663 25.56C148.17 24.36 148.85 23.3067 149.703 22.4C150.583 21.4667 151.57 20.7333 152.663 20.2C153.757 19.6667 154.917 19.4 156.143 19.4C157.13 19.4 157.97 19.5467 158.663 19.84C159.357 20.1067 159.93 20.4267 160.383 20.8C160.863 21.1733 161.223 21.5333 161.463 21.88L161.143 21.32C161.117 20.68 161.33 20.2 161.783 19.88C162.263 19.5333 163.01 19.36 164.023 19.36C164.983 19.36 165.663 19.5067 166.063 19.8C166.49 20.0933 166.743 20.48 166.823 20.96C166.93 21.44 166.983 21.9467 166.983 22.48V36.28C166.983 36.7867 166.93 37.28 166.823 37.76C166.743 38.24 166.49 38.6267 166.063 38.92C165.663 39.1867 164.97 39.32 163.983 39.32ZM157.023 33.36C157.717 33.36 158.343 33.1867 158.903 32.84C159.49 32.4667 159.943 31.9733 160.263 31.36C160.61 30.7467 160.783 30.0667 160.783 29.32C160.783 28.5467 160.61 27.8667 160.263 27.28C159.917 26.6667 159.45 26.1867 158.863 25.84C158.277 25.4667 157.637 25.28 156.943 25.28C156.17 25.28 155.477 25.4667 154.863 25.84C154.277 26.2133 153.797 26.7067 153.423 27.32C153.077 27.9333 152.903 28.6267 152.903 29.4C152.903 30.12 153.077 30.7867 153.423 31.4C153.797 31.9867 154.29 32.4667 154.903 32.84C155.543 33.1867 156.25 33.36 157.023 33.36ZM173.203 39.36C172.216 39.36 171.509 39.2267 171.083 38.96C170.683 38.6667 170.429 38.28 170.323 37.8C170.243 37.32 170.203 36.8267 170.203 36.32V22.36C170.203 21.8267 170.256 21.3333 170.363 20.88C170.469 20.4267 170.723 20.0667 171.123 19.8C171.549 19.5067 172.256 19.36 173.243 19.36C174.176 19.36 174.843 19.4933 175.243 19.76C175.669 20 175.936 20.2933 176.043 20.64C176.149 20.96 176.203 21.24 176.203 21.48L175.723 21.72C175.776 21.6133 175.909 21.4267 176.123 21.16C176.363 20.8667 176.683 20.5733 177.083 20.28C177.483 19.96 177.963 19.6933 178.523 19.48C179.109 19.2667 179.776 19.16 180.523 19.16C180.816 19.16 181.136 19.1867 181.483 19.24C181.856 19.2667 182.229 19.3467 182.603 19.48C183.003 19.5867 183.363 19.7467 183.683 19.96C184.003 20.1467 184.256 20.3867 184.443 20.68C184.656 20.9733 184.763 21.3333 184.763 21.76C184.763 22.8533 184.509 23.7867 184.003 24.56C183.496 25.3067 182.856 25.68 182.083 25.68C181.629 25.68 181.309 25.64 181.123 25.56C180.936 25.48 180.776 25.4 180.643 25.32C180.536 25.24 180.403 25.1733 180.243 25.12C180.083 25.04 179.789 25 179.363 25C178.963 25 178.576 25.0533 178.203 25.16C177.856 25.2667 177.523 25.44 177.203 25.68C176.909 25.8933 176.669 26.1733 176.483 26.52C176.323 26.84 176.243 27.2 176.243 27.6V36.4C176.243 36.9067 176.189 37.4 176.083 37.88C176.003 38.3333 175.749 38.6933 175.323 38.96C174.896 39.2267 174.189 39.36 173.203 39.36ZM194.837 39.4C194.117 39.4 193.557 39.2667 193.157 39C192.783 38.7333 192.503 38.4133 192.317 38.04C192.157 37.6667 192.023 37.3467 191.917 37.08L186.277 23.12C186.09 22.48 185.997 21.9467 185.997 21.52C186.023 21.0667 186.183 20.6933 186.477 20.4C186.797 20.08 187.29 19.8 187.957 19.56C188.97 19.1333 189.797 19.0133 190.437 19.2C191.077 19.3867 191.557 19.9333 191.877 20.84L194.837 28.88L197.477 21.48C197.583 21.2133 197.73 20.92 197.917 20.6C198.103 20.2533 198.383 19.9467 198.757 19.68C199.157 19.4133 199.69 19.28 200.357 19.28C201.077 19.28 201.637 19.4133 202.037 19.68C202.437 19.9467 202.73 20.2533 202.917 20.6C203.13 20.9467 203.277 21.24 203.357 21.48L205.997 28.88L208.797 21.32C209.17 20.3333 209.663 19.6667 210.277 19.32C210.89 18.9733 211.703 19.0133 212.717 19.44C213.65 19.84 214.29 20.3333 214.637 20.92C214.983 21.5067 214.943 22.2533 214.517 23.16L208.877 37.08C208.77 37.3733 208.623 37.7067 208.437 38.08C208.25 38.4533 207.97 38.76 207.597 39C207.223 39.2667 206.703 39.4 206.037 39.4C205.343 39.4 204.81 39.28 204.437 39.04C204.063 38.8267 203.77 38.5333 203.557 38.16C203.37 37.7867 203.21 37.4133 203.077 37.04L200.397 29.68L197.757 37.04C197.57 37.52 197.397 37.9467 197.237 38.32C197.077 38.6667 196.81 38.9333 196.437 39.12C196.09 39.3067 195.557 39.4 194.837 39.4ZM232.304 39.32C231.317 39.32 230.584 39.1467 230.104 38.8C229.65 38.4533 229.424 38.0267 229.424 37.52L229.824 36.84C229.664 37.1067 229.357 37.44 228.904 37.84C228.45 38.2133 227.864 38.56 227.144 38.88C226.424 39.1733 225.53 39.32 224.464 39.32C223.237 39.32 222.064 39.0533 220.944 38.52C219.85 37.9867 218.877 37.2533 218.024 36.32C217.17 35.36 216.49 34.28 215.984 33.08C215.504 31.88 215.264 30.6133 215.264 29.28C215.264 27.9733 215.504 26.7333 215.984 25.56C216.49 24.36 217.17 23.3067 218.024 22.4C218.904 21.4667 219.89 20.7333 220.984 20.2C222.077 19.6667 223.237 19.4 224.464 19.4C225.45 19.4 226.29 19.5467 226.984 19.84C227.677 20.1067 228.25 20.4267 228.704 20.8C229.184 21.1733 229.544 21.5333 229.784 21.88L229.464 21.32C229.437 20.68 229.65 20.2 230.104 19.88C230.584 19.5333 231.33 19.36 232.344 19.36C233.304 19.36 233.984 19.5067 234.384 19.8C234.81 20.0933 235.064 20.48 235.144 20.96C235.25 21.44 235.304 21.9467 235.304 22.48V36.28C235.304 36.7867 235.25 37.28 235.144 37.76C235.064 38.24 234.81 38.6267 234.384 38.92C233.984 39.1867 233.29 39.32 232.304 39.32ZM225.344 33.36C226.037 33.36 226.664 33.1867 227.224 32.84C227.81 32.4667 228.264 31.9733 228.584 31.36C228.93 30.7467 229.104 30.0667 229.104 29.32C229.104 28.5467 228.93 27.8667 228.584 27.28C228.237 26.6667 227.77 26.1867 227.184 25.84C226.597 25.4667 225.957 25.28 225.264 25.28C224.49 25.28 223.797 25.4667 223.184 25.84C222.597 26.2133 222.117 26.7067 221.744 27.32C221.397 27.9333 221.224 28.6267 221.224 29.4C221.224 30.12 221.397 30.7867 221.744 31.4C222.117 31.9867 222.61 32.4667 223.224 32.84C223.864 33.1867 224.57 33.36 225.344 33.36ZM246.203 39.36C245.109 39.36 244.136 39.2933 243.283 39.16C242.456 39.0533 241.736 38.84 241.123 38.52C240.536 38.2 240.056 37.76 239.683 37.2C239.309 36.64 239.029 35.92 238.843 35.04C238.683 34.1333 238.603 33.0267 238.603 31.72V13.24C238.603 12.7067 238.643 12.2133 238.723 11.76C238.829 11.3067 239.096 10.9333 239.523 10.64C239.949 10.3467 240.643 10.2 241.603 10.2C242.563 10.2 243.243 10.3467 243.643 10.64C244.069 10.9333 244.336 11.3067 244.443 11.76C244.549 12.2133 244.603 12.7067 244.603 13.24V31.44C244.603 31.8667 244.616 32.2267 244.643 32.52C244.696 32.7867 244.776 33 244.883 33.16C245.016 33.32 245.189 33.4267 245.403 33.48C245.616 33.5333 245.896 33.56 246.243 33.56C246.563 33.56 246.883 33.6 247.203 33.68C247.549 33.76 247.843 34 248.083 34.4C248.323 34.8 248.443 35.4667 248.443 36.4C248.443 37.36 248.323 38.0533 248.083 38.48C247.843 38.9067 247.549 39.16 247.203 39.24C246.883 39.32 246.549 39.36 246.203 39.36ZM266.874 39.32C265.887 39.32 265.154 39.1467 264.674 38.8C264.221 38.4533 263.994 38.0267 263.994 37.52L264.394 36.84C264.234 37.1067 263.927 37.44 263.474 37.84C263.021 38.2133 262.434 38.56 261.714 38.88C260.994 39.1733 260.101 39.32 259.034 39.32C257.807 39.32 256.634 39.0533 255.514 38.52C254.421 37.9867 253.447 37.2533 252.594 36.32C251.741 35.36 251.061 34.28 250.554 33.08C250.074 31.88 249.834 30.6133 249.834 29.28C249.834 27.9733 250.074 26.7333 250.554 25.56C251.061 24.36 251.741 23.3067 252.594 22.4C253.474 21.4667 254.461 20.7333 255.554 20.2C256.647 19.6667 257.807 19.4 259.034 19.4C260.021 19.4 260.861 19.5467 261.554 19.84C262.247 20.1067 262.821 20.4267 263.274 20.8C263.754 21.1733 264.114 21.5333 264.354 21.88L264.034 21.32C264.007 20.68 264.221 20.2 264.674 19.88C265.154 19.5333 265.901 19.36 266.914 19.36C267.874 19.36 268.554 19.5067 268.954 19.8C269.381 20.0933 269.634 20.48 269.714 20.96C269.821 21.44 269.874 21.9467 269.874 22.48V36.28C269.874 36.7867 269.821 37.28 269.714 37.76C269.634 38.24 269.381 38.6267 268.954 38.92C268.554 39.1867 267.861 39.32 266.874 39.32ZM259.914 33.36C260.607 33.36 261.234 33.1867 261.794 32.84C262.381 32.4667 262.834 31.9733 263.154 31.36C263.501 30.7467 263.674 30.0667 263.674 29.32C263.674 28.5467 263.501 27.8667 263.154 27.28C262.807 26.6667 262.341 26.1867 261.754 25.84C261.167 25.4667 260.527 25.28 259.834 25.28C259.061 25.28 258.367 25.4667 257.754 25.84C257.167 26.2133 256.687 26.7067 256.314 27.32C255.967 27.9333 255.794 28.6267 255.794 29.4C255.794 30.12 255.967 30.7867 256.314 31.4C256.687 31.9867 257.181 32.4667 257.794 32.84C258.434 33.1867 259.141 33.36 259.914 33.36Z" fill="white"/>
</svg>
