<svg width="40" height="40" viewBox="0 0 40 40" fill="none" xmlns="http://www.w3.org/2000/svg">
<path d="M39.9031 22.5125C39.8219 22.2938 39.625 22.1344 39.3875 22.1063C19.2875 19.475 12.2813 6.03751 12.2125 5.90001C12.1697 5.8148 12.1084 5.74022 12.0331 5.68173C11.9578 5.62324 11.8704 5.58232 11.7773 5.56195C11.6841 5.54158 11.5876 5.54229 11.4947 5.56401C11.4019 5.58574 11.3151 5.62793 11.2406 5.68751L0.296889 14.3719C0.0593886 14.5594 -0.0124864 14.8875 0.118764 15.1563C8.93126 33.1469 26.65 37.6938 26.8281 37.7406C26.9435 37.7689 27.0645 37.7645 27.1776 37.7281C27.2907 37.6917 27.3915 37.6246 27.4688 37.5344L39.7906 23.1594C39.9469 22.9813 39.9875 22.7344 39.9031 22.5125ZM16.725 32.1969C16.4 32.1969 16.0125 32.0406 15.8688 31.7438C15.725 31.45 15.7875 31.0969 15.9906 30.8469C16.1375 30.6656 16.3406 30.5594 16.5563 30.5188C17.8563 30.275 18.3438 32.1969 16.725 32.1969ZM19.1281 30.3125C18.8031 30.3125 18.4156 30.1563 18.2719 29.8625C18.125 29.5688 18.1906 29.2156 18.3938 28.9656C18.5406 28.7844 18.7438 28.6781 18.9594 28.6375C20.2656 28.3906 20.7469 30.3125 19.1281 30.3125ZM21.3313 28.2906C21.0031 28.2906 20.6156 28.1344 20.4719 27.8375C20.3281 27.5438 20.3938 27.1906 20.5969 26.9406C20.7469 26.7594 20.9469 26.6531 21.1625 26.6125C22.4656 26.3656 22.95 28.2906 21.3313 28.2906ZM23.4 26.1563C23.075 26.1563 22.6906 26 22.5438 25.7031C22.3969 25.4094 22.4625 25.0563 22.6656 24.8063C22.8125 24.625 23.0125 24.5188 23.2281 24.4781C24.5344 24.2344 25.0188 26.1563 23.4 26.1563ZM25.6156 23.8188C25.2938 23.875 24.8844 23.7875 24.6906 23.5188C24.5 23.2531 24.5031 22.8938 24.6594 22.6125C24.775 22.4094 24.9563 22.2719 25.1625 22.1938C26.4063 21.7313 27.2094 23.5438 25.6156 23.8188ZM27.5156 21.6438C27.1938 21.6938 26.7875 21.5969 26.5969 21.3281C26.4094 21.0594 26.4188 20.7 26.5813 20.4219C26.7 20.2188 26.8813 20.0844 27.0906 20.0125C28.3406 19.5688 29.1156 21.3969 27.5156 21.6438Z" fill="#4AC774"/>
<path d="M14.8656 21.5969C14.7062 21.7313 14.7219 21.9438 14.9 22.0719C14.9 22.0719 15.4812 22.5563 16.4625 23.225C17.4531 23.9 18.3875 24.3625 18.3875 24.3625C18.5844 24.4813 18.8781 24.4688 19.0375 24.3313L19.8187 23.6781C19.9844 23.5406 19.9562 23.3313 19.7625 23.2125C19.7625 23.2125 18.6406 22.5875 17.8062 22.0438C16.8094 21.3906 16.2531 20.95 16.2531 20.95C16.0687 20.8219 15.7906 20.825 15.6281 20.9594L14.8656 21.5969ZM12.7562 23.5031C12.6 23.6344 12.6031 23.8594 12.7656 24C12.7656 24 13.6406 24.8 14.3 25.3281C14.9625 25.8625 15.9125 26.6219 15.9125 26.6219C16.0875 26.7625 16.3625 26.7656 16.5219 26.6344L17.475 25.8344C17.6344 25.7 17.6156 25.4875 17.4312 25.3625C17.4312 25.3625 16.425 24.7 15.7 24.1875C14.9719 23.6719 14.05 22.925 14.05 22.925C13.8781 22.7906 13.6125 22.7906 13.4531 22.9219L12.7562 23.5031ZM11.1187 13.6625C10.9656 13.7844 10.9469 14.0063 11.0781 14.1594L11.3562 14.4719C11.4937 14.6219 11.7312 14.6438 11.8875 14.5219L12.4469 14.0813C12.6031 13.9563 12.6187 13.7375 12.4781 13.5906L12.1875 13.2844C12.05 13.1375 11.8125 13.1156 11.6531 13.2406L11.1187 13.6625ZM13.8344 16.5063C13.675 16.6313 13.6687 16.8469 13.8219 16.9875L14.4219 17.5375C14.5781 17.6781 14.8344 17.6906 14.9969 17.5688L15.6437 17.0688C15.8031 16.9438 15.8062 16.7313 15.6469 16.5938L15.0219 16.05C14.8656 15.9094 14.6094 15.9 14.45 16.0219L13.8344 16.5063ZM17.4094 18.4625C17.5719 18.3375 17.5656 18.1313 17.3937 18.0031L16.8 17.5438C16.6312 17.4125 16.3625 17.4063 16.2 17.5313L15.5406 18.0375C15.3812 18.1625 15.3812 18.3719 15.5437 18.5094L16.1187 18.975C16.2844 19.1094 16.5531 19.1156 16.7156 18.9906L17.4094 18.4625ZM19.3562 19.7938C19.5219 19.6688 19.5062 19.4688 19.3219 19.35L18.6406 18.8969C18.4625 18.775 18.1812 18.7781 18.0187 18.9031L17.3094 19.4406C17.1469 19.5625 17.1562 19.7688 17.3281 19.8969L17.9812 20.3594C18.1594 20.4844 18.4437 20.4844 18.6062 20.3594L19.3562 19.7938ZM11.2031 12.7375C11.3594 12.6156 11.3812 12.3906 11.25 12.2375L10.7625 11.6688C10.6375 11.5156 10.4125 11.4938 10.2594 11.6188L9.78124 12.0094C9.63124 12.1344 9.60311 12.3625 9.72499 12.5188L10.1781 13.0875C10.3031 13.2438 10.5312 13.2688 10.6875 13.1469L11.2031 12.7375ZM20.6719 20.1719C20.4812 20.0625 20.1875 20.0781 20.0187 20.2031L19.25 20.7844C19.0844 20.9094 19.1031 21.1063 19.2875 21.2219L20.7156 22.0594C20.9094 22.1688 21.2 22.15 21.3594 22.0156L22.1625 21.35C22.325 21.2156 22.2906 21.0219 22.0906 20.9219L20.6719 20.1719ZM13.9375 15.5531C14.0937 15.4313 14.1031 15.2125 13.9562 15.0688L13.475 14.6031C13.3312 14.4594 13.0812 14.4438 12.925 14.5656L12.35 15.0156C12.1906 15.1375 12.1812 15.3594 12.3187 15.5063L12.7812 15.9781C12.9281 16.125 13.175 16.1438 13.3344 16.0188L13.9375 15.5531ZM13.7281 21.0156C13.7812 21.0188 13.8281 21.0125 13.875 20.9906C14.1062 20.8844 14.6469 20.3813 14.7156 20.3281C14.975 20.125 14.9281 19.9656 14.7406 19.825C14.6031 19.7219 14.4781 19.6094 14.3469 19.5C14.0906 19.2875 12.8719 18.4906 11.1375 16.6031C9.63436 14.9688 8.66249 13.525 8.59686 13.4375C8.54999 13.3688 8.50624 13.2906 8.43436 13.2438C8.29999 13.1563 8.14686 13.35 8.05624 13.425L7.72499 13.7L7.51874 13.8688C7.39374 13.975 7.42186 14.1125 7.50311 14.2375C7.58124 14.3563 7.66249 14.475 7.74061 14.5938C7.92186 14.8625 8.10624 15.1313 8.29686 15.3938C8.53436 15.7219 8.78124 16.0438 9.03436 16.3656C9.33124 16.7406 9.64061 17.1125 9.95936 17.475C10.7302 18.354 11.5481 19.1906 12.4094 19.9813C12.6531 20.2063 12.9031 20.4281 13.1562 20.6438C13.2719 20.7438 13.3969 20.8781 13.5281 20.9563C13.5906 20.9844 13.6594 21.0094 13.7281 21.0156ZM12.7437 21.925C12.7437 21.8156 12.6156 21.725 12.5406 21.6563C12.4406 21.5688 12.3406 21.4781 12.2437 21.3875C12.0531 21.2094 11.8594 21.0313 11.6719 20.8531C11.2094 20.4125 10.7625 19.9625 10.3281 19.5063C9.93749 19.0938 9.55936 18.6719 9.19061 18.2469C8.86874 17.875 8.55311 17.4906 8.24999 17.1063C7.99374 16.7781 7.74374 16.4469 7.49999 16.1094C7.30624 15.8406 7.11249 15.5656 6.92811 15.2906C6.85624 15.1813 6.78124 15.0688 6.70936 14.9563C6.67811 14.9063 6.64686 14.8594 6.61561 14.8094C6.57811 14.75 6.51874 14.6594 6.44374 14.6563C6.33124 14.6531 6.28124 14.7344 6.19999 14.8031C6.07186 14.9063 5.94686 15.0094 5.81874 15.1156C5.75624 15.1656 5.69374 15.2188 5.63124 15.2719C5.40936 15.4531 5.54374 15.6 5.67186 15.8031C5.74374 15.9156 5.81561 16.0281 5.88436 16.1375C6.05936 16.4094 6.23749 16.675 6.42186 16.9406C6.64686 17.2656 6.88124 17.5875 7.11874 17.9094C7.40311 18.2844 7.69061 18.6531 7.98749 19.0219C8.32499 19.4406 8.67811 19.8563 9.03749 20.2656C9.44061 20.7219 9.85624 21.175 10.2812 21.6188C10.4906 21.8406 10.7062 22.0563 10.9219 22.275C11.0156 22.3688 11.1062 22.4625 11.2 22.5563C11.4562 22.8156 11.6562 22.8938 11.95 22.6719C12.1031 22.5594 12.2469 22.4375 12.3937 22.3156C12.5062 22.2125 12.7469 22.0906 12.7437 21.925Z" fill="#2F2F2F"/>
</svg>
